<?xml version="1.0" standalone="no"?>
<!DOCTYPE svg PUBLIC "-//W3C//DTD SVG 20010904//EN"
 "http://www.w3.org/TR/2001/REC-SVG-20010904/DTD/svg10.dtd">
<svg version="1.0" xmlns="http://www.w3.org/2000/svg"
 width="502.000000pt" height="107.000000pt" viewBox="0 0 502.000000 107.000000"
 preserveAspectRatio="xMidYMid meet">

<g transform="translate(0.000000,107.000000) scale(0.100000,-0.100000)"
fill="#000000" stroke="none">
<path d="M2849 690 c-67 -20 -99 -62 -99 -128 1 -48 19 -70 107 -126 85 -53
99 -82 62 -122 -43 -46 -124 -23 -159 47 -30 58 -45 46 -45 -37 l0 -69 105 0
c119 0 157 14 190 68 43 69 15 130 -83 186 -78 44 -103 75 -91 108 20 59 99
55 142 -7 15 -22 32 -39 39 -40 17 0 25 34 18 82 l-7 43 -76 2 c-42 0 -89 -2
-103 -7z"/>
<path d="M525 679 c-4 -5 0 -18 9 -28 20 -22 20 -46 -3 -199 -14 -95 -23 -128
-40 -146 -36 -38 -28 -46 53 -46 81 0 98 10 70 41 -17 18 -16 26 4 171 19 132
25 155 47 178 14 15 22 29 18 33 -11 11 -151 8 -158 -4z"/>
<path d="M1809 669 c-29 -29 -22 -63 14 -67 49 -6 86 45 55 76 -18 18 -45 15
-69 -9z"/>
<path d="M3785 623 c-26 -6 -45 -31 -45 -60 0 -15 -6 -23 -18 -23 -19 0 -42
-18 -42 -32 0 -4 12 -8 26 -8 20 0 25 -4 20 -17 -4 -9 -9 -58 -13 -108 -6 -89
-5 -93 18 -108 13 -10 36 -17 50 -17 30 0 89 44 89 66 0 17 -5 17 -29 2 -10
-6 -26 -8 -36 -4 -16 6 -17 15 -10 87 3 45 9 87 12 95 2 7 23 14 46 16 36 3
43 7 45 27 4 23 2 24 -38 17 l-42 -6 4 36 c3 39 -3 45 -37 37z"/>
<path d="M754 546 c-38 -17 -51 -35 -34 -46 13 -8 13 -25 -6 -194 l-7 -59 29
7 c43 11 51 22 59 74 9 64 43 139 73 162 58 46 78 12 57 -97 -19 -98 -19 -108
1 -127 21 -22 56 -20 88 5 35 28 35 52 -1 43 -24 -6 -26 -5 -19 17 3 13 9 60
13 105 6 79 5 81 -22 102 -45 36 -90 27 -148 -26 l-28 -26 3 34 c3 40 -11 47
-58 26z"/>
<path d="M1134 546 c-37 -17 -51 -35 -34 -46 9 -6 10 -32 5 -103 -7 -95 -7
-96 20 -123 22 -22 32 -25 62 -21 97 16 195 180 169 282 -5 21 -12 26 -33 23
-39 -5 -49 -28 -34 -76 19 -56 7 -108 -34 -149 -30 -30 -37 -33 -56 -23 -20
11 -21 17 -15 71 20 194 20 179 0 179 -10 -1 -33 -7 -50 -14z"/>
<path d="M1492 539 c-61 -31 -97 -88 -97 -155 0 -66 26 -104 84 -123 73 -23
151 7 198 78 28 41 31 117 7 162 -30 58 -117 75 -192 38z m105 -31 c19 -24 23
-67 12 -117 -19 -88 -67 -124 -111 -84 -33 30 -21 151 19 195 19 21 66 24 80
6z"/>
<path d="M1798 543 c-39 -16 -47 -30 -26 -51 8 -8 8 -31 0 -94 -15 -107 -15
-113 4 -132 23 -23 61 -19 89 9 32 31 32 47 0 39 -30 -7 -29 -10 -10 116 8 52
15 103 15 113 0 21 -22 21 -72 0z"/>
<path d="M2042 539 c-83 -42 -124 -171 -75 -237 46 -62 154 -67 218 -10 49 42
47 65 -2 38 -84 -45 -153 -11 -153 75 0 51 20 99 45 109 48 18 75 -5 75 -63 0
-41 36 -53 62 -21 25 31 23 55 -10 91 -38 42 -99 49 -160 18z"/>
<path d="M2380 549 c-79 -33 -132 -134 -110 -210 27 -94 144 -119 225 -47 47
41 48 68 1 39 -43 -27 -100 -27 -126 -1 -27 27 -25 40 6 40 50 0 105 23 134
57 36 40 37 63 7 98 -26 30 -94 42 -137 24z m78 -41 c37 -37 -12 -98 -79 -98
-43 0 -45 5 -25 54 21 50 75 73 104 44z"/>
<path d="M3103 540 c-39 -23 -42 -37 -10 -49 45 -17 108 -259 77 -296 -14 -17
-70 -21 -70 -5 0 6 -9 19 -20 30 -16 16 -25 18 -40 10 -28 -15 -27 -64 2 -84
77 -54 192 26 269 187 74 156 69 260 -12 217 -20 -11 -26 -54 -9 -65 19 -12
10 -98 -15 -145 -13 -25 -24 -42 -25 -39 -1 24 -64 218 -76 237 -18 27 -30 28
-71 2z"/>
<path d="M3484 546 c-62 -27 -83 -95 -41 -133 12 -11 36 -28 54 -37 60 -30 67
-86 11 -86 -23 0 -31 6 -40 30 -13 40 -41 55 -62 34 -21 -21 -20 -36 4 -67 56
-72 220 -28 220 58 0 36 -11 48 -79 85 -39 21 -46 30 -46 55 0 25 5 31 25 33
21 2 29 -4 43 -33 9 -19 21 -35 26 -35 48 0 57 56 15 89 -31 24 -84 27 -130 7z"/>
<path d="M4025 541 c-48 -22 -69 -44 -90 -94 -43 -103 11 -198 112 -197 39 1
107 33 126 61 23 32 11 41 -26 19 -48 -30 -101 -26 -127 8 l-22 27 52 7 c28 5
64 15 80 23 72 37 82 118 19 150 -37 20 -75 19 -124 -4z m94 -39 c23 -44 -23
-92 -89 -92 -25 0 -30 4 -30 24 0 37 46 86 81 86 17 0 32 -7 38 -18z"/>
<path d="M4294 546 c-40 -18 -49 -32 -31 -50 12 -13 12 -30 -3 -126 -19 -123
-15 -133 36 -108 24 11 30 23 41 77 7 36 21 81 31 100 19 40 65 77 81 67 14
-9 13 -83 -3 -174 -7 -40 -10 -75 -6 -77 12 -8 63 11 70 26 4 7 15 45 24 84
18 77 35 107 71 131 39 25 48 10 41 -65 -3 -36 -9 -84 -12 -107 -10 -69 43
-98 100 -53 34 27 35 52 1 43 -14 -3 -25 -4 -25 -1 0 3 7 41 15 85 14 72 14
85 1 116 -24 58 -85 61 -147 9 -24 -20 -34 -24 -37 -14 -20 61 -100 66 -159 9
l-34 -33 3 35 c3 40 -11 47 -58 26z"/>
</g>
</svg>
